<svg width="118px" height="43px" viewBox="0 0 118 43" version="1.1" xmlns="http://www.w3.org/2000/svg" xmlns:xlink="http://www.w3.org/1999/xlink">
        <defs>
            <polygon id="path-1" points="0.00827102804 0.010474359 117.964021 0.010474359 117.964021 42.9917308 0.00827102804 42.9917308"></polygon>
        </defs>
        <g id="logo-/-black" stroke="none" stroke-width="1" fill="none" fill-rule="evenodd">
            <g id="logo_blk-copy">
                <g id="Group-7">
                    <mask id="mask-2" fill="white">
                        <use xlink:href="#path-1"></use>
                    </mask>
                    <g id="Clip-2"></g>
                    <path d="M44.8916939,43.0001378 C38.1925748,43.0001378 34.4287056,38.4847244 34.4287056,32.463484 L34.4287056,13.2987147 L40.5637407,13.2987147 L40.5637407,32.162484 C40.5637407,34.7969231 41.8434065,37.0167981 44.8916939,37.0167981 C47.9405327,37.0167981 49.2201986,34.7969231 49.2201986,32.162484 L49.2201986,13.2987147 L55.3548201,13.2987147 L55.3548201,32.463484 C55.3548201,38.4847244 51.5537313,43.0001378 44.8916939,43.0001378" id="Fill-1" fill="#232321" mask="url(#mask-2)"></path>
                    <polyline id="Fill-3" fill="#232321" mask="url(#mask-2)" points="89.7836636 43 83.6109953 43 83.6109953 26.6992788 76.1946402 39.0645353 68.8196402 26.6992788 68.8196402 43 62.6087874 43 62.6087874 13.3785128 67.6565958 13.3785128 76.1946402 27.3128558 84.9150607 13.3785128 89.7836636 13.3785128 89.7836636 43"></polyline>
                    <polyline id="Fill-4" fill="#232321" mask="url(#mask-2)" points="27.1744626 43 21.0015187 43 21.0015187 26.6992788 13.5851636 39.0645353 6.21043925 26.6992788 6.21043925 43 0 43 0 13.3785128 5.04780841 13.3785128 13.5851636 27.3128558 22.3058598 13.3785128 27.1744626 13.3785128 27.1744626 43"></polyline>
                    <path d="M107.500895,43.0001378 C100.801914,43.0001378 97.0379065,38.4847244 97.0379065,32.463484 L97.0379065,13.2987147 L103.172528,13.2987147 L103.172528,32.162484 C103.172528,34.7969231 104.452607,37.0167981 107.500895,37.0167981 C110.549596,37.0167981 111.8294,34.7969231 111.8294,32.162484 L111.8294,13.2987147 L117.964021,13.2987147 L117.964021,32.463484 C117.964021,38.4847244 114.162932,43.0001378 107.500895,43.0001378" id="Fill-5" fill="#232321" mask="url(#mask-2)"></path>
                    <path d="M28.3452266,5.3273141 C27.7690117,5.3273141 27.3185164,5.17488462 26.9941542,4.87002564 C26.6696542,4.56475321 26.5074042,4.13888782 26.5074042,3.59132692 L27.1683972,3.59132692 C27.1683972,3.95007372 27.2726121,4.23205449 27.4806285,4.43768269 C27.6891963,4.64358654 27.9749603,4.74640064 28.3380584,4.74640064 C28.6578715,4.74640064 28.9048995,4.67376923 29.0792804,4.52864423 C29.2536612,4.38338141 29.3407827,4.17747756 29.3407827,3.91079487 C29.3407827,3.68849038 29.2790257,3.50794551 29.1553738,3.370125 C29.0319977,3.23216667 28.8226028,3.112125 28.5269136,3.0106891 L27.6842336,2.71272115 C27.0013224,2.49496474 26.6598668,2.04939103 26.6598668,1.376 C26.6598668,1.11000641 26.7275514,0.872403846 26.863472,0.664432692 C26.998979,0.456461538 27.1878341,0.295211538 27.4300374,0.181233974 C27.6721028,0.0678076923 27.9482173,0.010474359 28.2581051,0.010474359 C28.7568481,0.010474359 29.1566145,0.151464744 29.4568528,0.432067308 C29.757229,0.712945513 29.9073481,1.09057372 29.9073481,1.5648141 L29.2463551,1.5648141 C29.2463551,1.25030769 29.1590958,1.00677885 28.984715,0.835330128 C28.8103341,0.663330128 28.5609626,0.577192308 28.2366005,0.577192308 C27.9555234,0.577192308 27.7324813,0.646378205 27.5678879,0.784198718 C27.4032944,0.922019231 27.3209977,1.10752564 27.3209977,1.33989103 C27.3209977,1.55309936 27.3925421,1.73088782 27.5352173,1.87366987 C27.6780304,2.01672756 27.907,2.14145513 28.2219883,2.24799038 L29.0066332,2.52404487 C29.6701075,2.75158654 30.0017757,3.20653205 30.0017757,3.88957051 C30.0017757,4.32549679 29.8517944,4.67376923 29.5512804,4.93535256 C29.2509042,5.19679808 28.8489322,5.3273141 28.3452266,5.3273141" id="Fill-6" fill="#232321" mask="url(#mask-2)"></path>
                </g>
                <polyline id="Fill-8" fill="#232321" points="35.6395939 5.07638889 34.9957966 5.07638889 34.9957966 2.8499991 32.6893484 2.8499991 32.6893484 5.07638889 32.0456853 5.07638889 32.0456853 0 32.6893484 0 32.6893484 2.25583648 34.9957966 2.25583648 34.9957966 0 35.6395939 0 35.6395939 5.07638889"></polyline>
                <path d="M40.1320505,5.375 C39.5892663,5.375 39.1137811,5.25392387 38.7057366,5.01163228 C38.2976921,4.76934069 37.9838662,4.44359155 37.7649674,4.0349422 C37.5457851,3.62615351 37.4365482,3.17695967 37.4365482,2.6875 C37.4365482,2.19804033 37.5457851,1.74898582 37.7649674,1.33991848 C37.9838662,0.931408445 38.2976921,0.60593797 38.7057366,0.363646379 C39.1137811,0.121354788 39.5892663,0 40.1320505,0 C40.6745514,0 41.1498949,0.121354788 41.5582227,0.363646379 C41.9662672,0.60593797 42.2798098,0.931408445 42.4988503,1.33991848 C42.7177492,1.74898582 42.8274112,2.19804033 42.8274112,2.6875 C42.8274112,3.17695967 42.7177492,3.62615351 42.4988503,4.0349422 C42.2798098,4.44359155 41.9662672,4.76934069 41.5582227,5.01163228 C41.1498949,5.25392387 40.6745514,5.375 40.1320505,5.375 M40.1320505,0.602036783 C39.723581,0.602036783 39.3690923,0.696501244 39.0680178,0.885012183 C38.7668016,1.07352312 38.5364265,1.32528902 38.3773175,1.64114586 C38.2176417,1.95728135 38.1405667,2.30588029 38.1459506,2.6875 C38.1405667,3.06939836 38.2176417,3.41841529 38.3773175,3.73357548 C38.5364265,4.04971098 38.7668016,4.30203419 39.0680178,4.49026647 C39.3690923,4.67877741 39.723581,4.77296322 40.1320505,4.77296322 C40.5399534,4.77296322 40.8934502,4.67877741 41.1922578,4.49026647 C41.4907821,4.30203419 41.719882,4.04971098 41.8791327,3.73357548 C42.0383834,3.41841529 42.1154585,3.06939836 42.1104996,2.6875 C42.1154585,2.30588029 42.0383834,1.95728135 41.8791327,1.64114586 C41.719882,1.32528902 41.4907821,1.07352312 41.1922578,0.885012183 C40.8934502,0.696501244 40.5399534,0.602036783 40.1320505,0.602036783" id="Fill-9" fill="#232321"></path>
                <polyline id="Fill-10" fill="#232321" points="60.1979695 5.07638889 59.5617456 5.07638889 59.5617456 1.37050941 58.0617675 5.07638889 57.549651 5.07638889 56.0427318 1.3490436 56.0427318 5.07638889 55.4060914 5.07638889 55.4060914 0 56.0500894 0 57.8057787 4.14097493 59.5617456 0 60.1979695 0 60.1979695 5.07638889"></polyline>
                <polyline id="Fill-11" fill="#232321" points="65.5888325 5.07638889 62.5939086 5.07638889 62.5939086 0 65.5888325 0 65.5888325 0.594988224 63.2785646 0.594988224 63.2785646 2.25583648 65.5888325 2.25583648 65.5888325 2.8499991 63.2785646 2.8499991 63.2785646 4.48181347 65.5888325 4.48181347 65.5888325 5.07638889"></polyline>
                <polyline id="Fill-12" fill="#232321" points="71.4123646 5.07638889 70.6844749 5.07638889 71.7108408 3.06025395 69.7817259 0 70.5532614 0 72.0457806 2.37885208 73.2537737 0 73.9746193 0 71.4123646 5.07638889"></polyline>
                <path d="M77.5685988,5.375 C77.0258146,5.375 76.5503294,5.25392387 76.1422849,5.01163228 C75.7340987,4.76934069 75.4202728,4.44359155 75.2015156,4.0349422 C74.9823334,3.62615351 74.8730964,3.17695967 74.8730964,2.6875 C74.8730964,2.19804033 74.9823334,1.74898582 75.2015156,1.33991848 C75.4202728,0.931408445 75.7340987,0.60593797 76.1422849,0.363646379 C76.5503294,0.121354788 77.0258146,0 77.5685988,0 C78.1108162,0 78.5863014,0.121354788 78.994771,0.363646379 C79.4028155,0.60593797 79.716358,0.931408445 79.9353986,1.33991848 C80.1542974,1.74898582 80.2639594,2.19804033 80.2639594,2.6875 C80.2639594,3.17695967 80.1542974,3.62615351 79.9353986,4.0349422 C79.716358,4.44359155 79.4028155,4.76934069 78.994771,5.01163228 C78.5863014,5.25392387 78.1108162,5.375 77.5685988,5.375 M77.5685988,0.602036783 C77.1601292,0.602036783 76.8056405,0.696501244 76.5047077,0.885012183 C76.2033499,1.07352312 75.9731164,1.32528902 75.8138657,1.64114586 C75.65419,1.95728135 75.5771149,2.30588029 75.5824988,2.6875 C75.5771149,3.06939836 75.65419,3.41841529 75.8138657,3.73357548 C75.9731164,4.04971098 76.2033499,4.30203419 76.5047077,4.49026647 C76.8056405,4.67877741 77.1601292,4.77296322 77.5685988,4.77296322 C77.9765016,4.77296322 78.3299985,4.67877741 78.6288061,4.49026647 C78.9271886,4.30203419 79.1565719,4.04971098 79.3158227,3.73357548 C79.4750734,3.41841529 79.5521484,3.06939836 79.5470479,2.6875 C79.5521484,2.30588029 79.4750734,1.95728135 79.3158227,1.64114586 C79.1565719,1.32528902 78.9271886,1.07352312 78.6288061,0.885012183 C78.3299985,0.696501244 77.9765016,0.602036783 77.5685988,0.602036783" id="Fill-13" fill="#232321"></path>
                <path d="M83.8543174,5.375 C83.2989451,5.375 82.8609446,5.22419086 82.5409858,4.92149634 C82.2208931,4.61907089 82.0609137,4.18884108 82.0609137,3.63121051 L82.0609137,0.298611111 L82.703377,0.298611111 L82.703377,3.59569435 C82.703377,3.98354693 82.8056083,4.27978396 83.010607,4.48548171 C83.2152038,4.69091039 83.4964406,4.79409558 83.8543174,4.79409558 C84.2121942,4.79409558 84.4945029,4.69091039 84.7017793,4.48548171 C84.9087878,4.27978396 85.0123591,3.98354693 85.0123591,3.59569435 L85.0123591,0.298611111 L85.6548223,0.298611111 L85.6548223,3.63121051 C85.6548223,4.18884108 85.4939051,4.61907089 85.1714006,4.92149634 C84.8488961,5.22419086 84.4096897,5.375 83.8543174,5.375" id="Fill-14" fill="#232321"></path>
                <path d="M91.2710909,5.07638889 L90.5021603,5.07638889 L89.504094,3.50254734 L88.4242236,3.50254734 L88.4242236,5.07638889 L87.751269,5.07638889 L87.751269,0 L89.6072261,0 C89.9427212,0 90.2418745,0.0748531037 90.5059489,0.224972104 C90.7694619,0.374815909 90.9755858,0.582450713 91.1234787,0.848426907 C91.2710909,1.1144031 91.3451777,1.41670507 91.3451777,1.75478241 C91.3451777,2.15147634 91.24401,2.49712156 91.0419552,2.79213085 C90.8397601,3.08714014 90.5661443,3.29243578 90.2211078,3.40856817 L91.2710909,5.07638889 M88.4242236,0.594972096 L88.4242236,2.90798804 L89.5704634,2.90798804 C89.7777098,2.90798804 89.9647508,2.8583153 90.1322879,2.75924502 C90.2998249,2.66031233 90.4321427,2.52271471 90.5278381,2.34590177 C90.6240948,2.16977682 90.6722231,1.97246184 90.6722231,1.75478241 C90.6722231,1.53283745 90.6240948,1.33318331 90.5278381,1.15705836 C90.4321427,0.98052062 90.2998249,0.842923003 90.1322879,0.743439925 C89.9647508,0.644507239 89.7777098,0.594972096 89.5704634,0.594972096 L88.4242236,0.594972096" id="Fill-15" fill="#232321"></path>
                <path d="M46.4213867,5.07638889 L46.0318802,5.07638889 L45.9341359,4.87710177 L44.0253807,0 L44.6143871,0 L46.2529081,4.01655002 L47.2988123,1.85877529 L47.6193228,2.53805691 L46.4213867,5.07638889 M47.9399669,1.85877529 L47.6193228,1.19723558 L48.1996378,0 L48.8172589,0 L47.9399669,1.85877529" id="Fill-16" fill="#232321"></path>
                <polyline id="Fill-17" fill="#232321" points="49.2067762 5.07638889 48.8172589 5.07638889 46.4213198 0 47.0388244 0 48.9857422 4.01655002 50.6243088 0 51.213198 0 49.3045232 4.87710177 49.2067762 5.07638889"></polyline>
            </g>
        </g>
    </svg>
